<?xml version="1.0" standalone="no"?>
<!DOCTYPE svg PUBLIC "-//W3C//DTD SVG 20010904//EN"
 "http://www.w3.org/TR/2001/REC-SVG-20010904/DTD/svg10.dtd">
<svg version="1.0" xmlns="http://www.w3.org/2000/svg"
 width="700.000000pt" height="700.000000pt" viewBox="0 0 700.000000 700.000000"
 preserveAspectRatio="xMidYMid meet">
<metadata>
Created by potrace 1.11, written by Peter Selinger 2001-2013
</metadata>
<g transform="translate(0.000000,700.000000) scale(0.100000,-0.100000)"
fill="#000000" stroke="none">
<path d="M6473 6981 c-40 -10 -73 -17 -73 -15 0 2 -11 -1 -26 -6 -14 -6 -39
-12 -57 -15 -18 -3 -102 -22 -187 -41 -85 -20 -166 -38 -180 -40 -14 -3 -62
-14 -107 -24 -46 -11 -93 -21 -105 -24 -13 -2 -126 -27 -253 -56 -126 -28
-239 -53 -250 -56 -11 -2 -31 -6 -45 -9 -14 -3 -34 -7 -45 -9 -11 -2 -50 -11
-88 -20 -37 -9 -81 -18 -99 -21 -17 -3 -34 -8 -38 -10 -4 -2 -20 -7 -36 -9
-16 -3 -81 -17 -144 -31 -63 -14 -126 -28 -140 -31 -14 -3 -86 -19 -160 -36
-74 -16 -142 -31 -150 -33 -8 -2 -139 -31 -290 -64 -151 -34 -284 -63 -295
-65 -11 -3 -42 -10 -70 -16 -71 -17 -72 -17 -155 -35 -41 -9 -82 -18 -90 -20
-16 -4 -336 -75 -360 -80 -8 -2 -58 -13 -110 -25 -52 -12 -106 -23 -120 -26
-14 -2 -59 -12 -100 -22 l-75 -17 0 -2132 0 -2132 -35 21 c-19 12 -42 27 -50
34 -27 22 -208 111 -290 143 -69 26 -134 46 -215 67 -48 12 -174 36 -215 40
-25 3 -73 9 -108 13 -74 9 -309 7 -402 -3 -572 -63 -1049 -349 -1229 -738 -53
-115 -74 -203 -76 -327 -4 -250 86 -455 289 -656 194 -193 515 -357 806 -410
34 -7 126 -22 175 -31 64 -10 393 -12 475 -3 409 48 761 198 1000 424 184 174
279 353 306 577 4 29 7 820 8 1757 l1 1704 510 114 c281 62 519 115 530 117
11 2 337 75 725 161 388 86 712 158 720 160 8 2 170 38 360 80 190 42 352 78
360 80 8 2 76 17 150 33 74 17 137 28 139 26 6 -6 5 -2493 -1 -2499 -2 -2 -26
10 -54 28 -209 138 -517 246 -779 273 -27 2 -68 7 -90 9 -49 6 -262 6 -330 0
-76 -6 -158 -16 -180 -21 -11 -2 -32 -6 -47 -8 -125 -20 -329 -87 -464 -152
-502 -241 -757 -674 -649 -1100 53 -210 197 -411 400 -560 106 -78 102 -76
240 -144 260 -129 548 -193 865 -194 693 -1 1313 343 1482 824 48 137 47 49
48 2758 l0 2542 -227 -1 c-183 0 -242 -4 -300 -18z"/>
</g>
</svg>
